<svg xmlns="http://www.w3.org/2000/svg" xmlns:xlink="http://www.w3.org/1999/xlink" width="500" zoomAndPan="magnify" viewBox="0 0 375 374.999991" height="500" preserveAspectRatio="xMidYMid meet" version="1.0"><path fill="#ed1c24" d="M 330.992188 280.441406 C 344.132812 256.972656 361.769531 244.285156 354.820312 241.265625 C 350.613281 239.433594 337.828125 243.21875 318.265625 274.140625 C 288.730469 320.832031 241.507812 320.699219 243.925781 300.816406 C 250.246094 248.785156 229.382812 240.695312 229.960938 254.902344 C 231.125 283.414062 210.492188 300.558594 204.386719 306.753906 C 194.335938 316.953125 179.957031 321.691406 165.820312 319.421875 C 152.957031 317.355469 139.964844 314.5625 128.578125 309.109375 C 195.488281 374.054688 272.761719 337.925781 284.753906 330.6875 C 313.179688 313.535156 323.097656 294.542969 330.992188 280.441406 " fill-opacity="1" fill-rule="nonzero"/><path fill="#ed1c24" d="M 365.625 256.269531 C 363.21875 254.832031 357.460938 254.957031 348.25 261.289062 C 343.757812 266.921875 338.351562 274.050781 333.640625 282.460938 C 333.105469 283.414062 332.566406 284.394531 332.015625 285.394531 C 324.382812 299.210938 313.855469 318.257812 285.75 334.097656 C 316.296875 322.070312 327.949219 304.085938 337.398438 291.386719 C 353.175781 270.191406 372.253906 260.222656 365.625 256.269531 " fill-opacity="1" fill-rule="nonzero"/><path fill="#ed1c24" d="M 359.953125 272.050781 C 359.890625 272.105469 359.835938 272.15625 359.773438 272.210938 C 354.222656 277.449219 346.617188 284.621094 339.832031 293.742188 C 339.191406 294.597656 338.550781 295.472656 337.886719 296.371094 C 331.976562 304.414062 324.648438 314.367188 312.347656 323.511719 C 324.246094 316.492188 331.707031 308.234375 338.132812 301.730469 C 355.605469 284.085938 374.984375 277.433594 369.078125 272.789062 C 367.628906 271.652344 364.652344 270.960938 359.953125 272.050781 " fill-opacity="1" fill-rule="nonzero"/><path fill="#00adef" d="M 43.980469 94.53125 C 30.835938 118.003906 13.203125 130.691406 20.152344 133.710938 C 24.359375 135.542969 37.144531 131.753906 56.707031 100.832031 C 86.242188 54.144531 133.460938 54.277344 131.046875 74.15625 C 124.726562 126.191406 145.59375 134.28125 145.011719 120.074219 C 143.847656 91.5625 164.480469 74.417969 170.585938 68.222656 C 180.636719 58.019531 195.015625 53.28125 209.15625 55.554688 C 222.015625 57.617188 235.007812 60.414062 246.394531 65.867188 C 179.484375 0.917969 102.207031 37.050781 90.21875 44.285156 C 61.792969 61.4375 51.875 80.433594 43.980469 94.53125 " fill-opacity="1" fill-rule="nonzero"/><path fill="#00adef" d="M 9.34375 118.703125 C 11.757812 120.140625 17.511719 120.015625 26.726562 113.683594 C 31.214844 108.050781 36.621094 100.925781 41.332031 92.511719 C 41.867188 91.558594 42.40625 90.582031 42.960938 89.578125 C 50.589844 75.761719 61.117188 56.714844 89.222656 40.878906 C 58.675781 52.902344 47.023438 70.886719 37.574219 83.585938 C 21.796875 104.78125 2.714844 114.75 9.34375 118.703125 " fill-opacity="1" fill-rule="nonzero"/><path fill="#00adef" d="M 15.027344 102.921875 C 15.085938 102.867188 15.140625 102.816406 15.199219 102.761719 C 20.753906 97.523438 28.355469 90.351562 35.144531 81.230469 C 35.78125 80.375 36.425781 79.5 37.085938 78.605469 C 42.996094 70.558594 50.324219 60.605469 62.625 51.464844 C 50.730469 58.480469 43.269531 66.738281 36.839844 73.242188 C 19.371094 90.890625 -0.0117188 97.539062 5.898438 102.183594 C 7.34375 103.324219 10.324219 104.007812 15.027344 102.921875 " fill-opacity="1" fill-rule="nonzero"/><path fill="#80cc28" d="M 94.53125 330.992188 C 118 344.136719 130.691406 361.769531 133.710938 354.820312 C 135.542969 350.613281 131.753906 337.832031 100.832031 318.265625 C 54.144531 288.730469 54.277344 241.511719 74.15625 243.925781 C 126.191406 250.25 134.28125 229.382812 120.074219 229.960938 C 91.558594 231.128906 74.414062 210.492188 68.21875 204.386719 C 58.019531 194.335938 53.28125 179.957031 55.550781 165.820312 C 57.621094 152.957031 60.414062 139.964844 65.867188 128.578125 C 0.917969 195.488281 37.050781 272.765625 44.285156 284.753906 C 61.4375 313.183594 80.433594 323.097656 94.53125 330.992188 " fill-opacity="1" fill-rule="nonzero"/><path fill="#80cc28" d="M 118.703125 365.628906 C 120.140625 363.21875 120.015625 357.460938 113.683594 348.25 C 108.050781 343.757812 100.925781 338.351562 92.511719 333.644531 C 91.558594 333.105469 90.578125 332.566406 89.582031 332.015625 C 75.761719 324.382812 56.714844 313.855469 40.878906 285.75 C 52.902344 316.296875 70.886719 327.949219 83.585938 337.402344 C 104.78125 353.175781 114.75 372.257812 118.703125 365.628906 " fill-opacity="1" fill-rule="nonzero"/><path fill="#80cc28" d="M 102.925781 359.949219 C 102.871094 359.890625 102.816406 359.832031 102.761719 359.773438 C 97.523438 354.21875 90.351562 346.617188 81.230469 339.828125 C 80.375 339.191406 79.5 338.550781 78.601562 337.886719 C 70.558594 331.976562 60.605469 324.648438 51.464844 312.347656 C 58.480469 324.242188 66.738281 331.703125 73.242188 338.132812 C 90.890625 355.605469 97.539062 374.984375 102.183594 369.078125 C 103.324219 367.628906 104.011719 364.652344 102.925781 359.949219 " fill-opacity="1" fill-rule="nonzero"/><path fill="#f68712" d="M 280.441406 43.980469 C 256.96875 30.839844 244.285156 13.203125 241.265625 20.152344 C 239.429688 24.359375 243.21875 37.144531 274.140625 56.707031 C 320.832031 86.242188 320.699219 133.460938 300.816406 131.046875 C 248.785156 124.722656 240.691406 145.589844 254.898438 145.011719 C 283.414062 143.847656 300.558594 164.480469 306.753906 170.585938 C 316.953125 180.636719 321.691406 195.015625 319.421875 209.15625 C 317.355469 222.015625 314.5625 235.007812 309.105469 246.394531 C 374.054688 179.488281 337.925781 102.207031 330.691406 90.21875 C 313.535156 61.792969 294.539062 51.875 280.441406 43.980469 " fill-opacity="1" fill-rule="nonzero"/><path fill="#f68712" d="M 256.269531 9.347656 C 254.828125 11.757812 254.957031 17.511719 261.289062 26.726562 C 266.921875 31.214844 274.050781 36.621094 282.460938 41.332031 C 283.410156 41.867188 284.390625 42.40625 285.394531 42.960938 C 299.210938 50.59375 318.257812 61.121094 334.09375 89.222656 C 322.070312 58.675781 304.082031 47.023438 291.386719 37.574219 C 270.1875 21.796875 260.222656 2.71875 256.269531 9.347656 " fill-opacity="1" fill-rule="nonzero"/><path fill="#f68712" d="M 272.050781 15.027344 C 272.105469 15.085938 272.15625 15.136719 272.214844 15.199219 C 277.449219 20.75 284.621094 28.355469 293.746094 35.144531 C 294.601562 35.78125 295.476562 36.421875 296.371094 37.085938 C 304.414062 42.996094 314.371094 50.324219 323.507812 62.621094 C 316.496094 50.730469 308.238281 43.269531 301.730469 36.839844 C 284.085938 19.371094 277.4375 -0.0117188 272.792969 5.894531 C 271.652344 7.34375 270.964844 10.324219 272.050781 15.027344 " fill-opacity="1" fill-rule="nonzero"/></svg>